<?xml version="1.0" standalone="no"?>
<!DOCTYPE svg PUBLIC "-//W3C//DTD SVG 20010904//EN"
 "http://www.w3.org/TR/2001/REC-SVG-20010904/DTD/svg10.dtd">
<svg version="1.0" xmlns="http://www.w3.org/2000/svg"
 width="500.000000pt" height="500.000000pt" viewBox="0 0 500.000000 500.000000"
 preserveAspectRatio="xMidYMid meet">
<metadata>
Created by potrace 1.14, written by Peter Selinger 2001-2017
</metadata>
<g transform="translate(0.000000,500.000000) scale(0.100000,-0.100000)"
fill="#000000" stroke="none">
<path d="M1664 4436 c-29 -7 -69 -27 -90 -44 -22 -17 -168 -160 -326 -319
-269 -271 -287 -291 -302 -342 -23 -80 -24 -1410 -1 -1488 21 -71 72 -116 151
-132 32 -6 437 -44 899 -84 l840 -72 3 -137 3 -138 -823 0 c-890 0 -892 0
-962 -54 -18 -14 -42 -42 -52 -63 -18 -35 -19 -66 -19 -448 0 -384 1 -412 19
-449 26 -51 82 -90 153 -105 88 -18 2152 -11 2208 8 32 10 106 79 357 329 300
301 317 320 332 371 23 80 24 1460 1 1538 -21 71 -72 116 -151 132 -32 6 -437
44 -899 84 l-840 72 -3 113 -3 112 823 0 c890 0 892 0 962 54 18 14 42 42 52
63 18 35 19 66 19 448 0 382 -1 413 -19 448 -25 50 -72 85 -138 103 -73 19
-2114 19 -2194 0z m2166 -551 l0 -365 -930 0 -930 0 0 -299 0 -298 43 -6 c23
-3 453 -40 955 -83 l912 -79 0 -715 0 -715 -287 -287 -288 -288 -1067 0 -1068
0 0 365 0 365 930 0 930 0 0 324 0 323 -42 6 c-24 3 -454 40 -955 83 l-913 79
0 690 0 690 287 287 288 288 1067 0 1068 0 0 -365z"/>
</g>
</svg>
