<svg xmlns="http://www.w3.org/2000/svg" data-name="Layer 1" viewBox="0 0 100 100" x="0px" y="0px"><path d="M72.558,44.68l0-.028c0-.032,0-.064,0-.1h0v-.008c0-.037,0-.074,0-.111l0-.029c0-.029-.008-.058-.014-.087s-.008-.033-.012-.05-.01-.041-.016-.062-.014-.041-.021-.062-.011-.031-.017-.046-.02-.043-.03-.064-.012-.027-.019-.04-.023-.04-.035-.059-.016-.028-.025-.041-.023-.034-.036-.051-.021-.029-.033-.043-.023-.027-.035-.041-.027-.031-.042-.046l-.034-.032c-.017-.016-.034-.032-.052-.047L72.1,43.61c-.019-.015-.038-.03-.058-.044L72,43.541l-.059-.035-.053-.027-.05-.024-.077-.029-.033-.012c-.032-.01-.066-.019-.1-.026l-.015,0h0a.928.928,0,0,0-.092-.015l-.03-.005-.042,0c-.028,0-.055,0-.083,0H61.839a1.2,1.2,0,0,0-1.2,1.2,2.871,2.871,0,1,1-5.741,0,1.2,1.2,0,0,0-1.2-1.2H46.749V37.463a5.265,5.265,0,0,0,0-10.254V15.458a1.2,1.2,0,0,0-1.2-1.2c-15.168,0-27.508,11.468-27.508,25.564a24.191,24.191,0,0,0,4.849,14.5C27.861,61.019,28.1,65.792,28.1,73.653v5.682a6.887,6.887,0,0,0,6.88,6.879h.255v3.2A5.6,5.6,0,0,0,40.828,95h9.446a5.6,5.6,0,0,0,5.591-5.591v-3.2h.255A6.887,6.887,0,0,0,63,79.335V73.653c0-7.86.242-12.634,5.211-19.327A24.388,24.388,0,0,0,72.539,44.8v0c0-.025.009-.051.012-.077A.35.35,0,0,0,72.558,44.68Zm-28.2-28V28.268a1.194,1.194,0,0,0,1.2,1.2,2.871,2.871,0,0,1,0,5.742,1.2,1.2,0,0,0-1.2,1.2v6.953H38.459a5.265,5.265,0,0,0-10.254,0H20.729a21.64,21.64,0,0,1-.291-3.533C20.438,27.42,31.06,17.262,44.354,16.683ZM24.816,52.9a22.222,22.222,0,0,1-3.547-7.145h8a1.2,1.2,0,0,0,1.2-1.2,2.871,2.871,0,0,1,5.741,0,1.2,1.2,0,0,0,1.2,1.2h6.953v5.894a5.265,5.265,0,0,0,0,10.255V72.455H30.5C30.457,64.993,29.953,59.819,24.816,52.9ZM53.47,89.409a3.2,3.2,0,0,1-3.2,3.195H40.828a3.2,3.2,0,0,1-3.195-3.195v-3.2H53.47Zm7.135-10.074a4.49,4.49,0,0,1-4.485,4.484H34.983A4.49,4.49,0,0,1,30.5,79.335V74.85H60.605ZM66.287,52.9c-5.137,6.921-5.642,12.095-5.679,19.557H46.749V60.843a1.2,1.2,0,0,0-1.2-1.2,2.871,2.871,0,0,1,0-5.741,1.2,1.2,0,0,0,1.2-1.2V45.753h5.894a5.265,5.265,0,0,0,10.255,0h6.936A22.122,22.122,0,0,1,66.287,52.9Zm14.88-16.819a1.374,1.374,0,0,0,.1-.138l.017-.029a1.086,1.086,0,0,0,.083-.163l0-.014a1.18,1.18,0,0,0,.062-.207,24.161,24.161,0,0,0,.52-4.963C81.957,16.468,69.617,5,54.449,5a1.2,1.2,0,0,0-1.2,1.2V19.007a1.2,1.2,0,0,0,1.2,1.2,2.871,2.871,0,0,1,0,5.742,1.2,1.2,0,0,0-1.2,1.2V35.3a1.2,1.2,0,0,0,1.2,1.2h7.092a5.265,5.265,0,0,0,10.254,0h8.477a1.114,1.114,0,0,0,.174-.015l.034,0a1.179,1.179,0,0,0,.17-.045l.028-.01a1.227,1.227,0,0,0,.165-.075l.01-.006a1.163,1.163,0,0,0,.148-.1l.014-.01a1.221,1.221,0,0,0,.128-.121Zm-14.5,2.087A2.874,2.874,0,0,1,63.8,35.3a1.2,1.2,0,0,0-1.2-1.2H55.646V28.2a5.265,5.265,0,0,0,0-10.254V7.423C68.94,8,79.562,18.16,79.562,30.565a21.694,21.694,0,0,1-.294,3.532H70.736a1.2,1.2,0,0,0-1.2,1.2A2.873,2.873,0,0,1,66.668,38.166Z"/></svg>