<svg xmlns="http://www.w3.org/2000/svg" version="1.1" viewBox="0 0 100 100">
 <path d="m28.266 47.367c-0.49219-0.35938-0.60156-1.0547-0.23828-1.5508 0.36328-0.49219 1.0586-0.60156 1.5508-0.23828l4.8242 3.5273c0.49609 0.36328 0.60156 1.0547 0.23828 1.5508-0.070313 0.097656-0.15625 0.18359-0.25781 0.25391l-4.8047 3.5117c-0.49219 0.36328-1.1875 0.25391-1.5508-0.23828-0.36328-0.49609-0.25391-1.1914 0.23828-1.5508l3.6055-2.6328zm37.434 0.82812c-0.86328 0.003907-1.6016 0.61328-1.7695 1.457-0.16797 0.84766 0.28906 1.6914 1.0859 2.0195s1.7148 0.050781 2.1914-0.66797c0.47656-0.71875 0.37891-1.6719-0.23047-2.2812-0.33984-0.33984-0.79687-0.52734-1.2773-0.52734zm-2.8438-1.043v0.003906c1.2852-1.2812 3.2656-1.543 4.8398-0.64062 1.5742 0.89844 2.3477 2.7422 1.8945 4.4961-0.45703 1.7539-2.0273 2.9883-3.8398 3.0117-1.8125 0.023437-3.418-1.168-3.918-2.9102h-12.863c-0.61328 0-1.1094-0.49609-1.1094-1.1094 0-0.61328 0.49609-1.1094 1.1094-1.1094h12.859c0.1875-0.66016 0.54297-1.2578 1.0234-1.7383zm-5.2148 26.961c2-0.007812 3.6953-1.4844 3.9727-3.4648 0.28125-1.9844-0.94141-3.8711-2.8633-4.4297v-10.324c0-0.51172-0.20703-1.0039-0.57031-1.3672l-0.007813-0.007813c-0.36328-0.36328-0.85547-0.56641-1.3672-0.56641h-7.8359c-0.61328 0-1.1094 0.49609-1.1094 1.1094s0.49609 1.1094 1.1094 1.1094h7.5586v10.051c-1.9258 0.55859-3.1445 2.4453-2.8672 4.4297 0.28125 1.9844 1.9727 3.4609 3.9766 3.4648zm-1.2773-2.7461c-0.60938-0.60547-0.70703-1.5586-0.22656-2.2773 0.47656-0.71484 1.3906-0.99609 2.1875-0.66797s1.25 1.1719 1.082 2.0156c-0.16406 0.84766-0.90625 1.457-1.7656 1.457-0.48047 0-0.9375-0.1875-1.2773-0.52734zm1.2773-43.262c-0.86328 0-1.6055 0.60938-1.7695 1.457-0.16797 0.84375 0.28516 1.6914 1.082 2.0195s1.7148 0.046875 2.1914-0.66797c0.48047-0.71875 0.38281-1.6758-0.22656-2.2812-0.33984-0.33984-0.80078-0.52734-1.2773-0.52734zm-2.8477-1.043c-1.0117 1.0078-1.4141 2.4766-1.0586 3.8594s1.418 2.4727 2.793 2.8672v10.051h-7.5586c-0.61328 0-1.1094 0.5-1.1094 1.1133s0.49609 1.1094 1.1094 1.1094h7.8359c0.51172 0 1.0039-0.20703 1.3672-0.57031l0.007813-0.007813v0.003906c0.36328-0.36328 0.57031-0.85547 0.57031-1.3711v-10.328c1.1992-0.34375 2.1719-1.2227 2.6328-2.3789 0.46094-1.1562 0.36328-2.4648-0.26953-3.5352-0.63281-1.0742-1.7266-1.7969-2.9648-1.9531-1.2344-0.15625-2.4766 0.26953-3.3555 1.1484zm-8.6016-11.59c-0.61328 0-1.1094-0.49609-1.1094-1.1094s0.49609-1.1094 1.1094-1.1094h10.797c0.61328 0 1.1094 0.49609 1.1094 1.1094s-0.49609 1.1094-1.1094 1.1094zm5.3984 66.141c1.8945 0 3.5273 1.3359 3.8984 3.1953 0.37109 1.8594-0.625 3.7188-2.375 4.4453-1.75 0.72656-3.7695 0.11328-4.8242-1.4609-1.0508-1.5781-0.84375-3.6758 0.49609-5.0156 0.74219-0.74609 1.7539-1.1641 2.8047-1.1641zm1.2344 2.7383h0.003906c-0.58984-0.58984-1.5156-0.67969-2.207-0.21875-0.69531 0.46484-0.96094 1.3516-0.64453 2.125 0.32031 0.76953 1.1367 1.207 1.957 1.043 0.81641-0.16406 1.4062-0.87891 1.4062-1.7148 0-0.46094-0.18359-0.90625-0.51172-1.2344zm-27.656-47.824c-6.4258-0.003906-11.961 4.5391-13.215 10.844-1.2539 6.3047 2.1172 12.617 8.0586 15.078 5.9375 2.457 12.785 0.38281 16.359-4.9648 3.5703-5.3438 2.8672-12.465-1.6758-17.012-2.5234-2.5312-5.9531-3.9492-9.5273-3.9453zm7.957 5.5156c-3.7969-3.7969-9.7422-4.3828-14.203-1.3984-4.4648 2.9805-6.1992 8.6992-4.1445 13.66 2.0508 4.957 7.3242 7.7734 12.586 6.7266 5.2656-1.0469 9.0586-5.6641 9.0586-11.031 0.003906-2.9844-1.1836-5.8477-3.2969-7.957zm-5.3359-8.5586-0.70312-3.8008h-3.832l-0.70703 3.8047c-0.082031 0.45312-0.4375 0.80859-0.89062 0.88672-1.8047 0.40625-3.5273 1.125-5.0859 2.1172-0.375 0.23828-0.85937 0.23047-1.2227-0.023438l-3.1914-2.1914-2.707 2.7109 2.1914 3.1875c0.26172 0.38281 0.25781 0.88672-0.007813 1.2656-0.98828 1.5586-1.6992 3.2812-2.0977 5.0859-0.09375 0.43359-0.44141 0.76953-0.87891 0.84766l-3.8047 0.70312v3.832l3.8047 0.70312v0.003907c0.45312 0.085937 0.80859 0.44141 0.89062 0.89453 0.40625 1.8047 1.1211 3.5273 2.1133 5.0859 0.23828 0.375 0.23047 0.85547-0.019531 1.2227l-2.1914 3.1914 2.7109 2.7109 3.1875-2.1914c0.38281-0.26562 0.88672-0.26172 1.2656 0.003906 1.5625 0.98828 3.2812 1.6992 5.0859 2.0977 0.43359 0.097657 0.76953 0.44531 0.84766 0.88281l0.70703 3.8008h3.832l0.70312-3.8047v0.003906c0.085938-0.45703 0.44141-0.80859 0.89453-0.89062 1.8047-0.40625 3.5273-1.1211 5.0859-2.1172 0.375-0.23828 0.85547-0.23047 1.2227 0.023438l3.1875 2.1914 2.7109-2.7109-2.1914-3.1875c-0.26172-0.38281-0.25781-0.88672 0.007812-1.2656 0.98438-1.5586 1.6953-3.2812 2.0938-5.082 0.097657-0.43359 0.44531-0.76953 0.88281-0.85156l3.8047-0.70312-0.003906-3.8398-3.8008-0.70312c-0.45312-0.082031-0.80859-0.4375-0.89062-0.89453-0.40234-1.8047-1.1211-3.5234-2.1133-5.0859-0.23828-0.375-0.23047-0.85547 0.019531-1.2227l2.1914-3.1875-2.7109-2.7109-3.1875 2.1914h0.003906c-0.38281 0.26562-0.89062 0.26172-1.2695-0.003906-1.5625-0.98828-3.2812-1.6992-5.0859-2.0977-0.43359-0.097657-0.76953-0.44531-0.84766-0.88281zm1.3672-4.7617 0.67578 3.6562 0.003907 0.003906c1.5742 0.41406 3.082 1.0391 4.4883 1.8594l3.0625-2.1055h0.003906c0.5625-0.39062 1.3164-0.35938 1.8477 0.078125 0.039063 0.027344 0.078125 0.0625 0.11328 0.097656l3.5039 3.5039c0.52344 0.52344 0.59766 1.3477 0.17578 1.957l-2.1055 3.0625v0.003906c0.41016 0.70312 0.77344 1.4336 1.0859 2.1836 0.30859 0.75 0.56641 1.5195 0.77734 2.3047l3.6562 0.67969h-0.003906c0.73047 0.13281 1.2617 0.76953 1.2656 1.5117v4.957-0.003906c-0.003906 0.74219-0.53516 1.3789-1.2656 1.5117l-3.6562 0.67969h0.003906c-0.41406 1.5742-1.043 3.0859-1.8633 4.4922l2.1055 3.0625v0.003906c0.39062 0.5625 0.35938 1.3164-0.074219 1.8477-0.03125 0.039063-0.066406 0.078126-0.10156 0.11328l-3.5 3.5c-0.52734 0.52344-1.3516 0.59766-1.9609 0.17578l-3.0625-2.1055c-1.4062 0.82031-2.918 1.4453-4.4922 1.8633l-0.68359 3.6562c-0.13281 0.73047-0.76953 1.2617-1.5117 1.2656h-1.3672v5.7461h50.621v-12.34l-2.1055 3.6562v-0.003906c-0.074219 0.12891-0.17578 0.24219-0.29297 0.33203l-7.4375 5.8906c-0.35547 0.28125-0.84375 0.31641-1.2383 0.089844-0.39062-0.22656-0.60547-0.66797-0.53906-1.1172l1.3867-9.4062c0.023437-0.16797 0.085937-0.32812 0.18359-0.46875l10.051-17.402-0.003906-35.113c-0.003906-1.6953-1.375-3.0664-3.0664-3.0703h-44.488c-1.6914 0.003907-3.0625 1.375-3.0664 3.0703v15.062h1.3672c0.74219 0 1.375 0.53125 1.5117 1.2617zm-5.0977 43.816v15.062c0.007812 2.918 2.3711 5.2812 5.2891 5.2852h44.484c2.918-0.003907 5.2852-2.3672 5.2891-5.2852v-25.504l9.3555-16.203c0.75391 0.26953 1.5938-0.007812 2.0391-0.67578 0.023437-0.03125 0.042969-0.0625 0.0625-0.097656l6.1133-10.586-0.003906 0.003906c0.42578-0.73437 0.26562-1.6641-0.37891-2.2109l0.52734-0.92188c0.011718-0.019531 0.023437-0.035156 0.035156-0.058594 1.0156-1.7617 0.41016-4.0117-1.3516-5.0312l-1.543-0.89062-0.058593-0.035156c-1.7617-1.0156-4.0156-0.41016-5.0312 1.3516l-0.5625 0.97656h-0.003907c-0.79297-0.28516-1.6758 0.039062-2.0977 0.76953l-6.0781 10.527c-0.011719 0.019531-0.023437 0.039063-0.035156 0.058594-0.42578 0.73047-0.26562 1.6641 0.38281 2.207l-1.375 2.3828v-31.262c-0.007813-2.918-2.3711-5.2852-5.2891-5.2891h-44.48c-2.918 0.003907-5.2852 2.3711-5.2891 5.2891v15.062h-1.3672c-0.74219 0.003906-1.375 0.53125-1.5117 1.2617l-0.67969 3.6562h0.003906c-1.5742 0.41406-3.0859 1.0391-4.4922 1.8594l-3.0664-2.1055h0.003907c-0.60938-0.42188-1.4336-0.34766-1.957 0.17578l-3.5039 3.5039h-0.003906c-0.035156 0.039063-0.066406 0.074219-0.097656 0.11328-0.43359 0.53125-0.46484 1.2852-0.078125 1.8516l2.1055 3.0625c-0.81641 1.4062-1.4453 2.918-1.8594 4.4922l-3.6602 0.67578c-0.73047 0.13281-1.2578 0.76953-1.2617 1.5117v4.957-0.003907c0.003907 0.74219 0.53125 1.3789 1.2617 1.5117l3.6562 0.67969c0.41406 1.5742 1.0391 3.082 1.8594 4.4883l-2.1055 3.0625v0.003906c-0.41797 0.60938-0.34375 1.4336 0.17578 1.957l3.5039 3.5039h0.003906c0.035157 0.035156 0.074219 0.070312 0.11328 0.097656 0.52734 0.4375 1.2812 0.46875 1.8477 0.078125l3.0664-2.1055c1.4023 0.82031 2.9141 1.4492 4.4883 1.8633l0.67969 3.6562h-0.003906c0.13672 0.72656 0.76953 1.2578 1.5117 1.2617zm52.844 7.9648h-50.621v7.0977c0.003906 1.6914 1.375 3.0625 3.0664 3.0664h44.484c1.6953-0.003907 3.0625-1.375 3.0703-3.0664zm10.227-49.145 0.78125-1.3516 6.6328 3.8281-0.78125 1.3516zm5.5234 5.7461-3.7578 6.5078-6.6328-3.8281 3.7578-6.5078zm-11.449 9.957c0.30469-0.53125 0.98047-0.71094 1.5117-0.41016 0.52734 0.30469 0.71094 0.98047 0.40625 1.5117l-7.4297 12.867c-0.14062 0.25781-0.38281 0.44922-0.66797 0.53125-0.28516 0.078125-0.59375 0.039062-0.85156-0.10938-0.25391-0.14453-0.44141-0.39062-0.51562-0.67969-0.074219-0.28516-0.03125-0.58984 0.12109-0.84375zm-10.852 16.215 12.043-20.855 4.1523 2.3984-12.043 20.855zm3.043 4.3164-0.41406 0.71875-5.0977 4.0391 0.94922-6.4453 0.41016-0.71094zm16.859-38.793 0.55078-0.95312h0.003906c0.41016-0.69531 1.2969-0.93359 2-0.53516l0.0625 0.035156 1.5469 0.89453v-0.003907c0.69141 0.41016 0.92969 1.3008 0.53516 2-0.011719 0.019531-0.023437 0.039063-0.035156 0.0625l-0.51562 0.89453-4.1523-2.3984zm-65.043 16.762c0.16016-0.59375 0.76562-0.94531 1.3594-0.78516 0.58984 0.15625 0.94141 0.76562 0.78516 1.3555l-2.2266 8.3086c-0.16016 0.58984-0.76562 0.94141-1.3594 0.78516-0.58984-0.16016-0.94141-0.76953-0.78516-1.3594zm-4.4492 0.019531v-0.003906c0.49609-0.35938 1.1875-0.25391 1.5508 0.24219 0.36328 0.49219 0.25391 1.1875-0.23828 1.5469l-3.6016 2.6328 3.6016 2.6328c0.49219 0.35938 0.60156 1.0547 0.23828 1.5469-0.36328 0.49609-1.0547 0.60156-1.5508 0.24219l-4.8047-3.5117c-0.29297-0.20703-0.46875-0.53906-0.47266-0.89844-0.003906-0.35547 0.16406-0.69531 0.45312-0.90625z" fill-rule="evenodd"/>
</svg>