<svg xmlns="http://www.w3.org/2000/svg" version="1.1" viewBox="0 0 100 100">
 <path d="m37.844 21.883c0.34375-0.67969 0.78125-1.2891 1.2969-1.8164 0.40234-0.41016 1.0625-0.41797 1.4727-0.019531 0.41406 0.40234 0.41797 1.0625 0.019531 1.4727-0.36719 0.37891-0.68359 0.81641-0.93359 1.3086-0.18359 0.36328-0.55078 0.57031-0.92969 0.57031-0.16016 0-0.32031-0.035157-0.47266-0.11328-0.51172-0.26172-0.71484-0.88672-0.45703-1.4023zm56.949 28.117c0 3.957-3.2188 7.1797-7.1797 7.1797-2.0664 0-3.9258-0.88281-5.2383-2.2852v0.28906c0 4.3242-3.5195 7.8438-7.8438 7.8438h-3.6289v4.75c0 1.7227-1.4023 3.125-3.125 3.125h-4.75v3.6289c0 4.3242-3.5195 7.8438-7.8438 7.8438h-0.28906c1.4023 1.3086 2.2852 3.168 2.2852 5.2344 0 3.957-3.2188 7.1797-7.1797 7.1797-3.957 0-7.1797-3.2188-7.1797-7.1797 0-2.0664 0.88281-3.9258 2.2852-5.2344h-0.28906c-4.3242 0-7.8438-3.5195-7.8438-7.8438v-3.6289h-4.75c-1.7227 0-3.125-1.4023-3.125-3.125v-4.75h-3.6289c-4.3242 0-7.8438-3.5195-7.8438-7.8438v-0.28906c-1.3125 1.4023-3.1719 2.2852-5.2383 2.2852-3.957 0-7.1797-3.2188-7.1797-7.1797 0-3.957 3.2188-7.1797 7.1797-7.1797 2.0664 0 3.9258 0.88281 5.2383 2.2852v-0.28906c0-4.3242 3.5195-7.8438 7.8438-7.8438h3.6289v-4.75c0-1.7227 1.4023-3.125 3.125-3.125h4.75v-2.1367c0-0.57422 0.46484-1.043 1.043-1.043 0.57422 0 1.043 0.46484 1.043 1.043v2.1367h4.3828v-2.4258c0-0.57422 0.46484-1.043 1.043-1.043 0.57422 0 1.043 0.46484 1.043 1.043v2.4258h8.9648v-2.4258c0-0.57422 0.46484-1.043 1.043-1.043 0.57422 0 1.043 0.46484 1.043 1.043v2.4258h4.3828v-3.625c0-3.1758-2.582-5.7617-5.7578-5.7617h-10.375c-0.46094 0-0.92188 0.054687-1.332 0.15625-0.55859 0.14062-1.125-0.19922-1.2617-0.75781-0.14062-0.55859 0.19922-1.125 0.75781-1.2617 0.58203-0.14453 1.1992-0.21875 1.8359-0.21875h0.29688c-1.4023-1.3125-2.2852-3.1719-2.2852-5.2383 0-3.957 3.2188-7.1797 7.1797-7.1797 3.957 0 7.1797 3.2188 7.1797 7.1797 0 2.0664-0.88281 3.9258-2.2852 5.2383h0.29688c4.3242 0 7.8438 3.5195 7.8438 7.8438v3.6289h4.75c1.7227 0 3.125 1.4023 3.125 3.125v4.75h3.6289c4.3242 0 7.8438 3.5195 7.8438 7.8438v0.28906c1.3125-1.4023 3.1719-2.2852 5.2383-2.2852 3.957 0 7.1797 3.2188 7.1797 7.1797zm-44.793-32.52c2.8086 0 5.0938-2.2852 5.0938-5.0938 0-2.8086-2.2852-5.0938-5.0938-5.0938s-5.0938 2.2852-5.0938 5.0938c0 2.8086 2.2852 5.0938 5.0938 5.0938zm-32.52 32.52c0-2.8086-2.2852-5.0938-5.0977-5.0938-2.8086 0-5.0938 2.2852-5.0938 5.0938s2.2852 5.0938 5.0938 5.0938c2.8086 0 5.0977-2.2852 5.0977-5.0938zm32.52 32.52c-2.8086 0-5.0938 2.2852-5.0938 5.0938 0 2.8086 2.2852 5.0938 5.0938 5.0938s5.0938-2.2852 5.0938-5.0938c0-2.8086-2.2852-5.0938-5.0938-5.0938zm-20.902-21.574v-4.3789h-2.4258c-0.57422 0-1.043-0.46484-1.043-1.043 0-0.57422 0.46484-1.043 1.043-1.043h2.4258v-8.9648h-2.4258c-0.57422 0-1.043-0.46484-1.043-1.043 0-0.57422 0.46484-1.043 1.043-1.043h2.4258v-4.3789h-3.6289c-3.1758 0-5.7617 2.5859-5.7617 5.7617v10.367c0 3.1758 2.582 5.7617 5.7617 5.7617h3.6289zm31.848 9.957h-4.3789v2.4258c0 0.57422-0.46484 1.043-1.043 1.043-0.57422 0-1.043-0.46484-1.043-1.043v-2.4258h-8.9648v2.4258c0 0.57422-0.46484 1.043-1.043 1.043-0.57422 0-1.043-0.46484-1.043-1.043v-2.4258h-4.3789v3.6289c0 3.1758 2.5859 5.7617 5.7617 5.7617h10.367c3.1758 0 5.7617-2.5859 5.7617-5.7617v-3.6289zm7.875-38.68c0-0.57422-0.46484-1.043-1.043-1.043h-35.555c-0.57422 0-1.043 0.46875-1.043 1.043v35.559c0 0.57422 0.46484 1.043 1.043 1.043h35.559c0.57422 0 1.043-0.46875 1.043-1.043zm11.473 12.594c0-3.1758-2.582-5.7617-5.7617-5.7617h-3.6289v4.3789h2.4258c0.57422 0 1.043 0.46484 1.043 1.043 0 0.57422-0.46484 1.043-1.043 1.043h-2.4258v8.9648h2.4258c0.57422 0 1.043 0.46484 1.043 1.043 0 0.57422-0.46484 1.043-1.043 1.043h-2.4258v4.3789h3.6289c3.1758 0 5.7617-2.5859 5.7617-5.7617zm12.414 5.1836c0-2.8086-2.2852-5.0938-5.0938-5.0938-2.8086 0-5.0977 2.2852-5.0977 5.0938s2.2852 5.0938 5.0977 5.0938c2.8086 0 5.0938-2.2852 5.0938-5.0938zm-28.93-3.4414c0.33984 0.76172 0.35938 1.6094 0.058594 2.3906-0.30078 0.77734-0.89063 1.3906-1.6562 1.7266l-4.8281 2.1328 0.66016 5.6836c0.097656 0.82812-0.13672 1.6484-0.65625 2.3008-0.51953 0.65234-1.2617 1.0664-2.0898 1.1641l-10.656 1.2383c-0.12109 0.015626-0.24219 0.019532-0.36328 0.019532-1.5625 0-2.918-1.1758-3.1016-2.7656l-0.79297-6.8359c-0.12109-1.0625 0.30469-2.0625 1.0586-2.7188l-3.9961-2.5117c-1.4609-0.92578-1.8945-2.8594-0.97266-4.3164l3.6641-5.8203c0.91797-1.4453 2.8438-1.8867 4.3047-0.98828l6.457 4.0625 6.0039-2.6523c0.76172-0.33984 1.6133-0.35938 2.3906-0.058594 0.77734 0.30078 1.3906 0.88672 1.7305 1.6484l2.7812 6.293zm-25.25 0.0625 5.4453 3.4258 2.6484-0.30859-1.1562-2.6094c-0.6875-1.5781 0.027344-3.4258 1.5898-4.1211l1.5117-0.66797-5.2578-3.3086c-0.48438-0.30078-1.1328-0.15234-1.4414 0.33203l-3.6641 5.8203c-0.30859 0.48828-0.16406 1.1328 0.32031 1.4414zm17.414 12.109-0.79297-6.8359c-0.03125-0.27734-0.16797-0.52344-0.38672-0.69531s-0.49219-0.24609-0.76562-0.21875l-10.656 1.2383c-0.57031 0.066406-0.98047 0.58594-0.91406 1.1562l0.79297 6.832c0.066406 0.57031 0.59375 0.98438 1.1562 0.91406l10.656-1.2383c0.27734-0.03125 0.52344-0.16797 0.69531-0.38672 0.17188-0.21875 0.25-0.49219 0.21875-0.76562zm5.9297-11.328-2.7852-6.293c-0.11328-0.25391-0.32031-0.44922-0.57813-0.55078-0.26172-0.10156-0.53906-0.09375-0.79297 0.019531l-9.8164 4.3359c-0.51953 0.23047-0.75781 0.85156-0.52734 1.3828l1.4141 3.1953 4.9648-0.57422c0.83594-0.097657 1.6484 0.13672 2.3008 0.65234 0.39062 0.30859 0.67969 0.70313 0.88281 1.1445l4.4023-1.9453c0.25781-0.11328 0.45312-0.31641 0.55078-0.57031 0.097656-0.25781 0.09375-0.53906-0.019531-0.78906z"/>
</svg>